Land_normalized_pl08_filtered_grf
version=1
nRows=15
nColumns=37
inDegrees=yes
endheader
time		1_ground_force_vx		1_ground_force_vy		1_ground_force_vz		1_ground_force_px		1_ground_force_py		1_ground_force_pz		1_ground_torque_x		1_ground_torque_y		1_ground_torque_z		2_ground_force_vx		2_ground_force_vy		2_ground_force_vz		2_ground_force_px		2_ground_force_py		2_ground_force_pz		2_ground_torque_x		2_ground_torque_y		2_ground_torque_z		3_ground_force_vx		3_ground_force_vy		3_ground_force_vz		3_ground_force_px		3_ground_force_py		3_ground_force_pz		3_ground_torque_x		3_ground_torque_y		3_ground_torque_z		4_ground_force_vx		4_ground_force_vy		4_ground_force_vz		4_ground_force_px		4_ground_force_py		4_ground_force_pz		4_ground_torque_x		4_ground_torque_y		4_ground_torque_z		
0.760333		-20.661172		612.686581		263.042861		0.109166		0.000000		0.170691		-0.418908		12.422464		5.333313		58.515440		837.616667		258.125803		-0.123601		0.000000		0.205935		-0.402060		-5.755289		-1.773592		22.594358		2.066175		0.533975		0.375648		1.311030		1.913699		-0.090001		-0.008231		-0.002127		-18.928612		-0.383497		2.116598		-0.265025		1.309994		1.924598		0.016646		0.000337		-0.001861		
0.763540		-25.014776		620.938019		256.222077		0.110862		0.000000		0.172429		-0.497925		12.360018		5.100212		62.766120		830.751699		253.084569		-0.124529		0.000000		0.205731		-0.413313		-5.470543		-1.666578		22.837339		2.055061		0.722251		0.375678		1.311029		1.913713		-0.089989		-0.008098		-0.002846		-18.762497		-0.417401		1.971125		-0.265004		1.310010		1.924633		0.017328		0.000386		-0.001820		
0.766747		-29.832934		631.362941		249.518798		0.112401		0.000000		0.173294		-0.574211		12.152642		4.802857		67.989502		824.358067		249.125554		-0.125700		0.000000		0.205478		-0.400212		-4.852865		-1.466570		22.981944		2.031840		0.907319		0.375709		1.311027		1.913725		-0.091022		-0.008047		-0.003593		-18.572543		-0.512047		1.802111		-0.264993		1.310023		1.924669		0.016814		0.000463		-0.001632		
0.769955		-34.867364		642.769540		242.249659		0.113739		0.000000		0.173418		-0.643620		11.865080		4.471779		73.387409		818.308002		246.096368		-0.126941		0.000000		0.205140		-0.364885		-4.068774		-1.223637		22.990730		1.993433		1.054151		0.375739		1.311024		1.913738		-0.092898		-0.008055		-0.004260		-18.399766		-0.636487		1.701198		-0.264993		1.310030		1.924704		0.015674		0.000542		-0.001449		
0.773162		-39.725071		654.669114		234.183207		0.114971		0.000000		0.173488		-0.708299		11.672922		4.175580		77.913329		812.796906		243.499562		-0.128055		0.000000		0.204756		-0.325074		-3.391343		-1.015989		22.867758		1.943420		1.127455		0.375766		1.311024		1.913752		-0.095042		-0.008077		-0.004686		-18.276177		-0.757555		1.717448		-0.265005		1.310029		1.924736		0.014366		0.000596		-0.001350		
0.776369		-43.997916		666.867765		225.871065		0.116210		0.000000		0.174046		-0.768134		11.642521		3.943390		80.904370		808.224197		240.749305		-0.128925		0.000000		0.204423		-0.302267		-3.019635		-0.899474		22.660002		1.894664		1.112639		0.375789		1.311032		1.913767		-0.096734		-0.008088		-0.004750		-18.213581		-0.853861		1.831503		-0.265018		1.310023		1.924762		0.013134		0.000616		-0.001321		
0.779576		-47.361876		679.121377		218.222807		0.117483		0.000000		0.175155		-0.815503		11.693513		3.757496		82.467078		804.976461		237.489310		-0.129566		0.000000		0.204224		-0.304600		-2.973247		-0.877185		22.435148		1.861098		1.021090		0.375805		1.311051		1.913786		-0.097376		-0.008077		-0.004432		-18.206709		-0.916166		1.978760		-0.265026		1.310017		1.924782		0.012058		0.000607		-0.001311		
0.782783		-49.607940		690.977337		211.883676		0.118709		0.000000		0.176543		-0.845031		11.770247		3.609277		83.343149		803.236688		233.769106		-0.130079		0.000000		0.204195		-0.321314		-3.096723		-0.901247		22.256087		1.846071		0.880591		0.375812		1.311080		1.913810		-0.096644		-0.008016		-0.003824		-18.243671		-0.940761		2.090653		-0.265023		1.310011		1.924795		0.011050		0.000569		-0.001266		
0.785990		-50.675225		701.788914		206.962355		0.119738		0.000000		0.177849		-0.860307		11.914181		3.513574		84.352723		802.922312		229.970726		-0.130577		0.000000		0.204302		-0.332356		-3.163573		-0.906101		22.158872		1.836327		0.721104		0.375810		1.311115		1.913836		-0.094518		-0.007833		-0.003075		-18.318780		-0.925857		2.132916		-0.265007		1.310011		1.924804		0.009893		0.000500		-0.001151		
0.789197		-50.607691		710.793012		203.284648		0.120455		0.000000		0.178804		-0.864172		12.137440		3.471267		85.895359		803.775094		226.509770		-0.131109		0.000000		0.204481		-0.322616		-3.018948		-0.850769		22.146223		1.809611		0.567958		0.375804		1.311147		1.913859		-0.091233		-0.007455		-0.002340		-18.439496		-0.873220		2.113771		-0.264985		1.310017		1.924816		0.008486		0.000402		-0.000973		
0.792404		-49.489551		717.318499		200.677982		0.120826		0.000000		0.179266		-0.852470		12.356019		3.456734		87.820976		805.412498		223.506787		-0.131634		0.000000		0.204685		-0.292285		-2.680598		-0.743888		22.192374		1.751528		0.445562		0.375798		1.311167		1.913875		-0.087399		-0.006898		-0.001754		-18.613779		-0.795739		2.067081		-0.264965		1.310030		1.924834		0.007097		0.000303		-0.000788		
0.795611		-47.319924		720.925661		199.088038		0.120874		0.000000		0.179235		-0.822110		12.525000		3.458855		89.661204		807.444748		220.705616		-0.132067		0.000000		0.204894		-0.256677		-2.311522		-0.631833		22.265399		1.667734		0.377878		0.375795		1.311168		1.913879		-0.083994		-0.006291		-0.001425		-18.830855		-0.717062		2.026982		-0.264953		1.310047		1.924862		0.006323		0.000241		-0.000681		
0.798818		-44.111550		721.592398		198.411284		0.120666		0.000000		0.178862		-0.777336		12.716056		3.496446		90.939534		809.499203		217.685776		-0.132337		0.000000		0.205118		-0.235866		-2.099567		-0.564606		22.342758		1.583192		0.378562		0.375796		1.311148		1.913872		-0.082091		-0.005817		-0.001391		-19.052990		-0.660235		2.012380		-0.264954		1.310064		1.924895		0.006719		0.000233		-0.000710		
0.802025		-40.050100		719.680312		198.443187		0.120343		0.000000		0.178425		-0.723055		12.992990		3.582661		91.417197		811.253626		214.191686		-0.132424		0.000000		0.205365		-0.239518		-2.125530		-0.561194		22.416136		1.526270		0.435845		0.375798		1.311116		1.913857		-0.082338		-0.005607		-0.001601		-19.232682		-0.630293		2.024497		-0.264965		1.310075		1.924930		0.008345		0.000273		-0.000879		
0.805232		-35.507108		715.690990		199.009696		0.120060		0.000000		0.178195		-0.659963		13.302673		3.699035		91.176347		812.457424		210.291834		-0.132370		0.000000		0.205630		-0.260958		-2.325362		-0.601876		22.486254		1.512437		0.512797		0.375796		1.311078		1.913840		-0.084677		-0.005695		-0.001931		-19.335683		-0.610107		2.054567		-0.264986		1.310079		1.924961		0.010643		0.000336		-0.001131		
